<svg width="915" height="138" viewBox="0 0 915 138" fill="none" xmlns="http://www.w3.org/2000/svg">
<g clip-path="url(#clip0_28_6)">
<path d="M75.2969 70.2031L107.133 105.359C111.69 110.438 113.969 115.092 113.969 119.324C113.969 123.556 111.951 127.462 107.914 131.043C103.943 134.624 99.6458 136.414 95.0234 136.414C90.4661 136.414 85.7135 133.745 80.7656 128.406L39.5547 83.6797V119.422C39.5547 130.75 33.1094 136.414 20.2188 136.414C7.32812 136.414 0.882812 130.75 0.882812 119.422V21.5703C0.882812 10.2422 7.32812 4.57812 20.2188 4.57812C33.1094 4.57812 39.5547 10.2422 39.5547 21.5703V56.9219L80.7656 12.3906C85.7786 6.98698 90.5312 4.28516 95.0234 4.28516C99.5807 4.28516 103.845 6.07552 107.816 9.65625C111.853 13.1719 113.871 17.0781 113.871 21.375C113.871 25.6719 111.625 30.2943 107.133 35.2422L75.2969 70.2031ZM190.531 81.9219L182.133 59.0703L173.734 81.9219H190.531ZM162.211 113.172L158.5 123.133C155.18 131.987 149.711 136.414 142.094 136.414C134.542 136.414 129.105 134.103 125.785 129.48C122.53 124.793 120.902 120.594 120.902 116.883C120.902 113.172 121.716 109.526 123.344 105.945L163.578 17.8594C167.615 9.00521 173.767 4.57812 182.035 4.57812C190.303 4.57812 196.456 9.00521 200.492 17.8594L240.922 105.945C242.615 109.591 243.461 113.27 243.461 116.98C243.461 120.691 241.866 124.858 238.676 129.48C235.486 134.103 230.017 136.414 222.27 136.414C214.587 136.414 209.086 131.987 205.766 123.133L202.055 113.172H162.211ZM320.023 81.9219L311.625 59.0703L303.227 81.9219H320.023ZM291.703 113.172L287.992 123.133C284.672 131.987 279.203 136.414 271.586 136.414C264.034 136.414 258.598 134.103 255.277 129.48C252.022 124.793 250.395 120.594 250.395 116.883C250.395 113.172 251.208 109.526 252.836 105.945L293.07 17.8594C297.107 9.00521 303.259 4.57812 311.527 4.57812C319.796 4.57812 325.948 9.00521 329.984 17.8594L370.414 105.945C372.107 109.591 372.953 113.27 372.953 116.98C372.953 120.691 371.358 124.858 368.168 129.48C364.978 134.103 359.509 136.414 351.762 136.414C344.079 136.414 338.578 131.987 335.258 123.133L331.547 113.172H291.703ZM484.281 97.3516C484.281 123.393 470.479 136.414 442.875 136.414H400.688C387.797 136.414 381.352 130.75 381.352 119.422V21.5703C381.352 10.2422 387.797 4.57812 400.688 4.57812H439.945C466.247 4.57812 479.398 15.0599 479.398 36.0234C479.398 49.8255 474.125 59.3958 463.578 64.7344C477.38 71.375 484.281 82.2474 484.281 97.3516ZM445.609 95.2031C445.609 85.6979 440.857 80.9453 431.352 80.9453H420.023V109.461H431.742C440.987 109.461 445.609 104.708 445.609 95.2031ZM442.875 43.8359C442.875 35.3724 438.643 31.1406 430.18 31.1406H420.023V56.5312H430.57C438.773 56.5312 442.875 52.2995 442.875 43.8359ZM630.863 69.2266C630.863 89.6042 624.255 106.108 611.039 118.738C597.823 131.303 581.091 137.586 560.844 137.586C540.596 137.586 523.93 131.303 510.844 118.738C497.758 106.108 491.215 89.6042 491.215 69.2266C491.215 48.849 497.725 32.3451 510.746 19.7148C523.767 7.01953 540.531 0.671875 561.039 0.671875C581.612 0.671875 598.376 7.01953 611.332 19.7148C624.353 32.3451 630.863 48.849 630.863 69.2266ZM584.574 44.7148C578.715 38.2695 570.902 35.0469 561.137 35.0469C551.371 35.0469 543.526 38.3021 537.602 44.8125C531.677 51.2578 528.715 59.4284 528.715 69.3242C528.715 79.1549 531.677 87.2604 537.602 93.6406C543.526 100.021 551.339 103.211 561.039 103.211C570.805 103.211 578.617 99.9883 584.477 93.543C590.401 87.0977 593.363 78.9596 593.363 69.1289C593.363 59.2982 590.434 51.1602 584.574 44.7148ZM777.348 69.2266C777.348 89.6042 770.74 106.108 757.523 118.738C744.307 131.303 727.576 137.586 707.328 137.586C687.081 137.586 670.414 131.303 657.328 118.738C644.242 106.108 637.699 89.6042 637.699 69.2266C637.699 48.849 644.21 32.3451 657.23 19.7148C670.251 7.01953 687.016 0.671875 707.523 0.671875C728.096 0.671875 744.861 7.01953 757.816 19.7148C770.837 32.3451 777.348 48.849 777.348 69.2266ZM731.059 44.7148C725.199 38.2695 717.387 35.0469 707.621 35.0469C697.855 35.0469 690.01 38.3021 684.086 44.8125C678.161 51.2578 675.199 59.4284 675.199 69.3242C675.199 79.1549 678.161 87.2604 684.086 93.6406C690.01 100.021 697.823 103.211 707.523 103.211C717.289 103.211 725.102 99.9883 730.961 93.543C736.885 87.0977 739.848 78.9596 739.848 69.1289C739.848 59.2982 736.918 51.1602 731.059 44.7148ZM850.102 45.2031L877.25 12.5859C881.677 7.2474 887.667 4.57812 895.219 4.57812C908.109 4.57812 914.555 10.2422 914.555 21.5703V119.422C914.555 130.75 908.109 136.414 895.219 136.414C882.328 136.414 875.883 130.75 875.883 119.422V65.5156L850.102 95.7891L824.32 65.7109V119.422C824.32 130.75 817.875 136.414 804.984 136.414C792.094 136.414 785.648 130.75 785.648 119.422V21.5703C785.648 10.0469 792.094 4.38281 804.984 4.57812C812.406 4.64323 818.331 7.3125 822.758 12.5859L850.102 45.2031Z" fill="#CDDC39"/>
</g>
<defs>
<clipPath id="clip0_28_6">
<rect width="915" height="138" fill="white"/>
</clipPath>
</defs>
</svg>
